<?xml version="1.0" standalone="no"?>
<!DOCTYPE svg PUBLIC "-//W3C//DTD SVG 20010904//EN"
 "http://www.w3.org/TR/2001/REC-SVG-20010904/DTD/svg10.dtd">
<svg version="1.0" xmlns="http://www.w3.org/2000/svg"
 width="147.000000pt" height="43.000000pt" viewBox="0 0 147.000000 43.000000"
 preserveAspectRatio="xMidYMid meet">
<metadata>
Created by potrace 1.15, written by Peter Selinger 2001-2017
</metadata>
<g transform="translate(0.000000,43.000000) scale(0.100000,-0.100000)"
fill="#000000" stroke="none">
<path d="M30 362 c0 -101 41 -205 119 -301 l35 -43 29 33 c80 93 127 206 127
305 l0 54 -35 0 c-33 0 -35 -2 -35 -32 -1 -77 -57 -233 -85 -233 -20 0 -67
115 -78 190 l-11 75 -33 0 c-33 0 -33 0 -33 -48z"/>
<path d="M383 359 c16 -135 142 -283 275 -324 20 -6 22 -3 22 32 0 36 -3 40
-54 66 -29 15 -66 41 -81 57 l-29 30 67 0 67 0 0 40 0 40 -90 0 c-73 0 -90 3
-90 15 0 12 17 15 95 15 l95 0 0 40 0 40 -141 0 -142 0 6 -51z"/>
<path d="M710 220 l0 -189 40 14 c126 44 236 181 255 318 l6 47 -150 0 -151 0
0 -190z m205 88 c-14 -48 -103 -158 -127 -158 -4 0 -8 40 -8 90 l0 90 71 0
c68 0 70 -1 64 -22z"/>
<path d="M1045 363 c8 -62 53 -159 95 -207 41 -46 107 -92 160 -111 l40 -14 0
38 c0 32 -4 40 -27 50 -76 34 -158 121 -178 189 -6 22 -6 22 99 22 l106 0 0
40 0 40 -151 0 -151 0 7 -47z"/>
<path d="M1370 220 l0 -191 38 3 37 3 0 185 0 185 -37 3 -38 3 0 -191z"/>
</g>
</svg>
